<svg width="70" height="80" viewBox="0 0 70 80" fill="none" xmlns="http://www.w3.org/2000/svg">
<circle cx="35" cy="28" r="28" fill="#DAEDFF" fill-opacity="0.6"/>
<path d="M27 24C27.5523 24 28 23.5523 28 23C28 22.4477 27.5523 22 27 22C26.4477 22 26 22.4477 26 23C26 23.5523 26.4477 24 27 24Z" fill="#0001FC"/>
<path d="M27 29C27.5523 29 28 28.5523 28 28C28 27.4477 27.5523 27 27 27C26.4477 27 26 27.4477 26 28C26 28.5523 26.4477 29 27 29Z" fill="#0001FC"/>
<path d="M27 34C27.5523 34 28 33.5523 28 33C28 32.4477 27.5523 32 27 32C26.4477 32 26 32.4477 26 33C26 33.5523 26.4477 34 27 34Z" fill="#0001FC"/>
<path d="M43.06 27H30.94C30.4209 27 30 27.4209 30 27.94V28.06C30 28.5791 30.4209 29 30.94 29H43.06C43.5791 29 44 28.5791 44 28.06V27.94C44 27.4209 43.5791 27 43.06 27Z" fill="#0001FC"/>
<path d="M43.06 32H30.94C30.4209 32 30 32.4209 30 32.94V33.06C30 33.5791 30.4209 34 30.94 34H43.06C43.5791 34 44 33.5791 44 33.06V32.94C44 32.4209 43.5791 32 43.06 32Z" fill="#0001FC"/>
<path d="M43.06 22H30.94C30.4209 22 30 22.4209 30 22.94V23.06C30 23.5791 30.4209 24 30.94 24H43.06C43.5791 24 44 23.5791 44 23.06V22.94C44 22.4209 43.5791 22 43.06 22Z" fill="#0001FC"/>
<path d="M7.10938 73.7598H8.81836C8.76367 74.4115 8.58138 74.9925 8.27148 75.5029C7.96159 76.0088 7.52637 76.4076 6.96582 76.6992C6.40527 76.9909 5.72396 77.1367 4.92188 77.1367C4.30664 77.1367 3.75293 77.0273 3.26074 76.8086C2.76855 76.5853 2.34701 76.2708 1.99609 75.8652C1.64518 75.4551 1.3763 74.9606 1.18945 74.3818C1.00716 73.8031 0.916016 73.1559 0.916016 72.4404V71.6133C0.916016 70.8978 1.00944 70.2507 1.19629 69.6719C1.3877 69.0931 1.66113 68.5986 2.0166 68.1885C2.37207 67.7738 2.79818 67.457 3.29492 67.2383C3.79622 67.0195 4.35905 66.9102 4.9834 66.9102C5.77637 66.9102 6.44629 67.056 6.99316 67.3477C7.54004 67.6393 7.96387 68.0426 8.26465 68.5576C8.56999 69.0726 8.75684 69.6628 8.8252 70.3281H7.11621C7.07064 69.8997 6.97038 69.5329 6.81543 69.2275C6.66504 68.9222 6.44173 68.6898 6.14551 68.5303C5.84928 68.3662 5.46191 68.2842 4.9834 68.2842C4.59147 68.2842 4.24967 68.3571 3.95801 68.5029C3.66634 68.6488 3.42253 68.863 3.22656 69.1455C3.0306 69.4281 2.88249 69.7767 2.78223 70.1914C2.68652 70.6016 2.63867 71.071 2.63867 71.5996V72.4404C2.63867 72.9417 2.68197 73.3975 2.76855 73.8076C2.8597 74.2132 2.99642 74.5618 3.17871 74.8535C3.36556 75.1452 3.60254 75.3708 3.88965 75.5303C4.17676 75.6898 4.52083 75.7695 4.92188 75.7695C5.40951 75.7695 5.80371 75.6921 6.10449 75.5371C6.40983 75.3822 6.63997 75.1566 6.79492 74.8604C6.95443 74.5596 7.05924 74.1927 7.10938 73.7598ZM11.8398 66.5V77H10.1992V66.5H11.8398ZM11.5527 73.0283L11.0195 73.0215C11.0241 72.5111 11.0947 72.0394 11.2314 71.6064C11.3727 71.1735 11.5687 70.7975 11.8193 70.4785C12.0745 70.1549 12.3799 69.9066 12.7354 69.7334C13.0908 69.5557 13.485 69.4668 13.918 69.4668C14.2826 69.4668 14.6107 69.5169 14.9023 69.6172C15.1986 69.7174 15.4538 69.8792 15.668 70.1025C15.8822 70.3213 16.0439 70.6084 16.1533 70.9639C16.2673 71.3148 16.3242 71.7432 16.3242 72.249V77H14.6699V72.2354C14.6699 71.8799 14.6175 71.5973 14.5127 71.3877C14.4124 71.1781 14.2643 71.0277 14.0684 70.9365C13.8724 70.8408 13.6331 70.793 13.3506 70.793C13.0544 70.793 12.7923 70.8522 12.5645 70.9707C12.3411 71.0892 12.1543 71.251 12.0039 71.4561C11.8535 71.6611 11.7396 71.8981 11.6621 72.167C11.5892 72.4359 11.5527 72.723 11.5527 73.0283ZM22.1621 75.5166V71.9893C22.1621 71.7249 22.1143 71.4971 22.0186 71.3057C21.9229 71.1143 21.777 70.9661 21.5811 70.8613C21.3896 70.7565 21.1481 70.7041 20.8564 70.7041C20.5876 70.7041 20.3551 70.7497 20.1592 70.8408C19.9632 70.932 19.8105 71.055 19.7012 71.21C19.5918 71.3649 19.5371 71.5404 19.5371 71.7363H17.8965C17.8965 71.4447 17.9671 71.1621 18.1084 70.8887C18.2497 70.6152 18.4548 70.3714 18.7236 70.1572C18.9925 69.943 19.3138 69.7744 19.6875 69.6514C20.0612 69.5283 20.4805 69.4668 20.9453 69.4668C21.5013 69.4668 21.9935 69.5602 22.4219 69.7471C22.8548 69.9339 23.1943 70.2165 23.4404 70.5947C23.6911 70.9684 23.8164 71.4378 23.8164 72.0029V75.291C23.8164 75.6283 23.8392 75.9313 23.8848 76.2002C23.9349 76.4645 24.0055 76.6947 24.0967 76.8906V77H22.4082C22.3307 76.8223 22.2692 76.5967 22.2236 76.3232C22.1826 76.0452 22.1621 75.7764 22.1621 75.5166ZM22.4014 72.502L22.415 73.5205H21.2324C20.9271 73.5205 20.6582 73.5501 20.4258 73.6094C20.1934 73.6641 19.9997 73.7461 19.8447 73.8555C19.6898 73.9648 19.5736 74.097 19.4961 74.252C19.4186 74.4069 19.3799 74.5824 19.3799 74.7783C19.3799 74.9743 19.4255 75.1543 19.5166 75.3184C19.6077 75.4779 19.7399 75.6032 19.9131 75.6943C20.0908 75.7855 20.305 75.8311 20.5557 75.8311C20.8929 75.8311 21.1868 75.7627 21.4375 75.626C21.6927 75.4847 21.8932 75.3138 22.0391 75.1133C22.1849 74.9082 22.2624 74.7145 22.2715 74.5322L22.8047 75.2637C22.75 75.4505 22.6566 75.651 22.5244 75.8652C22.3923 76.0794 22.2191 76.2845 22.0049 76.4805C21.7952 76.6719 21.5423 76.8291 21.2461 76.9521C20.9544 77.0752 20.6172 77.1367 20.2344 77.1367C19.7513 77.1367 19.3206 77.041 18.9424 76.8496C18.5641 76.6536 18.2679 76.3916 18.0537 76.0635C17.8395 75.7308 17.7324 75.3548 17.7324 74.9355C17.7324 74.5436 17.8053 74.1973 17.9512 73.8965C18.1016 73.5911 18.3203 73.3359 18.6074 73.1309C18.8991 72.9258 19.2546 72.7708 19.6738 72.666C20.0931 72.5566 20.5716 72.502 21.1094 72.502H22.4014ZM27.3027 66.5V77H25.6484V66.5H27.3027ZM30.8711 66.5V77H29.2168V66.5H30.8711ZM35.9365 77.1367C35.3896 77.1367 34.8952 77.0479 34.4531 76.8701C34.0156 76.6878 33.6419 76.4349 33.332 76.1113C33.0267 75.7878 32.792 75.4072 32.6279 74.9697C32.4639 74.5322 32.3818 74.0605 32.3818 73.5547V73.2812C32.3818 72.7025 32.4661 72.1784 32.6348 71.709C32.8034 71.2396 33.0381 70.8385 33.3389 70.5059C33.6396 70.1686 33.9951 69.9111 34.4053 69.7334C34.8154 69.5557 35.2598 69.4668 35.7383 69.4668C36.2669 69.4668 36.7295 69.5557 37.126 69.7334C37.5225 69.9111 37.8506 70.1618 38.1104 70.4854C38.3747 70.8044 38.5706 71.1849 38.6982 71.627C38.8304 72.069 38.8965 72.5566 38.8965 73.0898V73.7939H33.1816V72.6113H37.2695V72.4814C37.2604 72.1852 37.2012 71.9072 37.0918 71.6475C36.987 71.3877 36.8252 71.1781 36.6064 71.0186C36.3877 70.859 36.096 70.7793 35.7314 70.7793C35.458 70.7793 35.2142 70.8385 35 70.957C34.7904 71.071 34.6149 71.2373 34.4736 71.4561C34.3324 71.6748 34.223 71.9391 34.1455 72.249C34.0726 72.5544 34.0361 72.8984 34.0361 73.2812V73.5547C34.0361 73.8783 34.0794 74.179 34.166 74.457C34.2572 74.7305 34.3893 74.9697 34.5625 75.1748C34.7357 75.3799 34.9453 75.5417 35.1914 75.6602C35.4375 75.7741 35.7178 75.8311 36.0322 75.8311C36.4287 75.8311 36.7819 75.7513 37.0918 75.5918C37.4017 75.4323 37.6706 75.2067 37.8984 74.915L38.7666 75.7559C38.6071 75.9883 38.3997 76.2116 38.1445 76.4258C37.8893 76.6354 37.5771 76.8063 37.208 76.9385C36.8434 77.0706 36.4196 77.1367 35.9365 77.1367ZM41.8154 71.1826V77H40.168V69.6035H41.7197L41.8154 71.1826ZM41.5215 73.0283L40.9883 73.0215C40.9928 72.4974 41.0658 72.0166 41.207 71.5791C41.3529 71.1416 41.5534 70.7656 41.8086 70.4512C42.0684 70.1367 42.3783 69.8952 42.7383 69.7266C43.0983 69.5534 43.4993 69.4668 43.9414 69.4668C44.2969 69.4668 44.6182 69.5169 44.9053 69.6172C45.1969 69.7129 45.4453 69.8701 45.6504 70.0889C45.86 70.3076 46.0195 70.5924 46.1289 70.9434C46.2383 71.2897 46.293 71.7158 46.293 72.2217V77H44.6387V72.2148C44.6387 71.8594 44.5863 71.5791 44.4814 71.374C44.3812 71.1644 44.2331 71.0163 44.0371 70.9297C43.8457 70.8385 43.6064 70.793 43.3193 70.793C43.0368 70.793 42.7839 70.8522 42.5605 70.9707C42.3372 71.0892 42.1481 71.251 41.9932 71.4561C41.8428 71.6611 41.7266 71.8981 41.6445 72.167C41.5625 72.4359 41.5215 72.723 41.5215 73.0283ZM52.7119 69.6035H54.209V76.7949C54.209 77.4603 54.0677 78.0254 53.7852 78.4902C53.5026 78.9551 53.1084 79.3083 52.6025 79.5498C52.0967 79.7959 51.5111 79.9189 50.8457 79.9189C50.5632 79.9189 50.2487 79.8779 49.9023 79.7959C49.5605 79.7139 49.2279 79.5817 48.9043 79.3994C48.5853 79.2217 48.3187 78.987 48.1045 78.6953L48.877 77.7246C49.1413 78.0391 49.4329 78.2692 49.752 78.415C50.071 78.5609 50.4059 78.6338 50.7568 78.6338C51.1351 78.6338 51.4564 78.5632 51.7207 78.4219C51.9896 78.2852 52.1969 78.0824 52.3428 77.8135C52.4886 77.5446 52.5615 77.2165 52.5615 76.8291V71.2783L52.7119 69.6035ZM47.6875 73.3838V73.2402C47.6875 72.6797 47.7559 72.1693 47.8926 71.709C48.0293 71.2441 48.2253 70.8454 48.4805 70.5127C48.7357 70.1755 49.0456 69.918 49.4102 69.7402C49.7747 69.5579 50.1872 69.4668 50.6475 69.4668C51.126 69.4668 51.5339 69.5534 51.8711 69.7266C52.2129 69.8997 52.4977 70.1481 52.7256 70.4717C52.9535 70.7907 53.1312 71.1735 53.2588 71.6201C53.391 72.0622 53.4889 72.5544 53.5527 73.0967V73.5547C53.4935 74.0833 53.3932 74.5664 53.252 75.0039C53.1107 75.4414 52.9238 75.8197 52.6914 76.1387C52.459 76.4577 52.1719 76.7038 51.8301 76.877C51.4928 77.0501 51.0941 77.1367 50.6338 77.1367C50.1826 77.1367 49.7747 77.0433 49.4102 76.8564C49.0501 76.6696 48.7402 76.4076 48.4805 76.0703C48.2253 75.7331 48.0293 75.3366 47.8926 74.8809C47.7559 74.4206 47.6875 73.9215 47.6875 73.3838ZM49.335 73.2402V73.3838C49.335 73.721 49.3669 74.0355 49.4307 74.3271C49.499 74.6188 49.6016 74.8763 49.7383 75.0996C49.8796 75.3184 50.0573 75.4915 50.2715 75.6191C50.4902 75.7422 50.7477 75.8037 51.0439 75.8037C51.4313 75.8037 51.748 75.7217 51.9941 75.5576C52.2448 75.3936 52.4362 75.1725 52.5684 74.8945C52.7051 74.612 52.8008 74.2975 52.8555 73.9512V72.7139C52.8281 72.445 52.7712 72.1943 52.6846 71.9619C52.6025 71.7295 52.4909 71.5267 52.3496 71.3535C52.2083 71.1758 52.0306 71.0391 51.8164 70.9434C51.6022 70.8431 51.3493 70.793 51.0576 70.793C50.7614 70.793 50.5039 70.8568 50.2852 70.9844C50.0664 71.112 49.8864 71.2874 49.7451 71.5107C49.6084 71.734 49.5059 71.9938 49.4375 72.29C49.3691 72.5863 49.335 72.903 49.335 73.2402ZM59.1787 77.1367C58.6318 77.1367 58.1374 77.0479 57.6953 76.8701C57.2578 76.6878 56.8841 76.4349 56.5742 76.1113C56.2689 75.7878 56.0342 75.4072 55.8701 74.9697C55.7061 74.5322 55.624 74.0605 55.624 73.5547V73.2812C55.624 72.7025 55.7083 72.1784 55.877 71.709C56.0456 71.2396 56.2803 70.8385 56.5811 70.5059C56.8818 70.1686 57.2373 69.9111 57.6475 69.7334C58.0576 69.5557 58.502 69.4668 58.9805 69.4668C59.5091 69.4668 59.9717 69.5557 60.3682 69.7334C60.7646 69.9111 61.0928 70.1618 61.3525 70.4854C61.6169 70.8044 61.8128 71.1849 61.9404 71.627C62.0726 72.069 62.1387 72.5566 62.1387 73.0898V73.7939H56.4238V72.6113H60.5117V72.4814C60.5026 72.1852 60.4434 71.9072 60.334 71.6475C60.2292 71.3877 60.0674 71.1781 59.8486 71.0186C59.6299 70.859 59.3382 70.7793 58.9736 70.7793C58.7002 70.7793 58.4564 70.8385 58.2422 70.957C58.0326 71.071 57.8571 71.2373 57.7158 71.4561C57.5745 71.6748 57.4652 71.9391 57.3877 72.249C57.3148 72.5544 57.2783 72.8984 57.2783 73.2812V73.5547C57.2783 73.8783 57.3216 74.179 57.4082 74.457C57.4993 74.7305 57.6315 74.9697 57.8047 75.1748C57.9779 75.3799 58.1875 75.5417 58.4336 75.6602C58.6797 75.7741 58.96 75.8311 59.2744 75.8311C59.6709 75.8311 60.0241 75.7513 60.334 75.5918C60.6439 75.4323 60.9128 75.2067 61.1406 74.915L62.0088 75.7559C61.8493 75.9883 61.6419 76.2116 61.3867 76.4258C61.1315 76.6354 60.8193 76.8063 60.4502 76.9385C60.0856 77.0706 59.6618 77.1367 59.1787 77.1367ZM67.5732 74.9971C67.5732 74.833 67.5322 74.6849 67.4502 74.5527C67.3682 74.416 67.2109 74.293 66.9785 74.1836C66.7507 74.0742 66.4134 73.974 65.9668 73.8828C65.5749 73.7962 65.2148 73.6937 64.8867 73.5752C64.5632 73.4521 64.2852 73.304 64.0527 73.1309C63.8203 72.9577 63.6403 72.7526 63.5127 72.5156C63.3851 72.2786 63.3213 72.0052 63.3213 71.6953C63.3213 71.3945 63.3874 71.1097 63.5195 70.8408C63.6517 70.5719 63.8408 70.335 64.0869 70.1299C64.333 69.9248 64.6315 69.763 64.9824 69.6445C65.3379 69.526 65.7344 69.4668 66.1719 69.4668C66.7917 69.4668 67.3226 69.5716 67.7646 69.7812C68.2113 69.9863 68.5531 70.2666 68.79 70.6221C69.027 70.973 69.1455 71.3695 69.1455 71.8115H67.498C67.498 71.6156 67.4479 71.4333 67.3477 71.2646C67.252 71.0915 67.1061 70.9525 66.9102 70.8477C66.7142 70.7383 66.4681 70.6836 66.1719 70.6836C65.8893 70.6836 65.6546 70.7292 65.4678 70.8203C65.2855 70.9069 65.1488 71.0208 65.0576 71.1621C64.971 71.3034 64.9277 71.4583 64.9277 71.627C64.9277 71.75 64.9505 71.8617 64.9961 71.9619C65.0462 72.0576 65.1283 72.1465 65.2422 72.2285C65.3561 72.306 65.5111 72.3789 65.707 72.4473C65.9076 72.5156 66.1582 72.5817 66.459 72.6455C67.0241 72.764 67.5094 72.9167 67.915 73.1035C68.3252 73.2858 68.6396 73.5228 68.8584 73.8145C69.0771 74.1016 69.1865 74.4661 69.1865 74.9082C69.1865 75.2363 69.1159 75.5371 68.9746 75.8105C68.8379 76.0794 68.6374 76.3141 68.373 76.5146C68.1087 76.7106 67.792 76.8633 67.4229 76.9727C67.0583 77.082 66.6481 77.1367 66.1924 77.1367C65.5225 77.1367 64.9551 77.0182 64.4902 76.7812C64.0254 76.5397 63.6722 76.2321 63.4307 75.8584C63.1937 75.4801 63.0752 75.0882 63.0752 74.6826H64.668C64.6862 74.988 64.7705 75.2318 64.9209 75.4141C65.0758 75.5918 65.2673 75.7217 65.4951 75.8037C65.7275 75.8812 65.9668 75.9199 66.2129 75.9199C66.5091 75.9199 66.7575 75.8812 66.958 75.8037C67.1585 75.7217 67.3112 75.6123 67.416 75.4756C67.5208 75.3343 67.5732 75.1748 67.5732 74.9971Z" fill="#1F53E4"/>
</svg>
